<svg id="Layer_1" data-name="Layer 1" xmlns="http://www.w3.org/2000/svg" viewBox="0 0 966.66 265.63"><defs><style>.cls-1{fill:#1d263d;}</style></defs><title>logotype-even</title><path class="cls-1" d="M1038.54,743c0,25.49,0,51,0,76.48a95.12,95.12,0,0,0,2.65,23.14c3.27,12.93,10.66,21.37,24.3,23.44,1.34.2,2.68.5,4,.62,2.29.19,3.63,1.16,3.53,3.65s-1.91,2.54-3.71,2.59c-.58,0-1.17,0-1.75,0-23.36,0-46.71,0-70.07-.16-2.2,0-5.59,1.35-5.84-2.75s3.09-3.09,5.41-3.45c15-2.32,23.69-11.08,26.79-26.82,2.69-13.69,1.86-27.55,1.91-41.34.16-50.79,0-101.59.22-152.39,0-6.09-2-10.4-6.5-14.11a54.73,54.73,0,0,0-23.76-11.8c-2.12-.45-4.5-.43-4.35-3.5.17-3.58,3-3,5.19-3,18.49.13,37,.4,55.46.42,3.25,0,5,1.64,6.65,3.88,49.67,65.28,101.53,128.83,152.12,193.39,1.29,1.65,2.21,5.08,4.84,4,1.9-.77.81-3.9.81-5.95q.12-71.24.11-142.46c0-9-.65-17.9-3.2-26.55-3.58-12.1-11.85-18.79-24.3-20.37-2.5-.31-5.62-.05-5.19-3.82.38-3.37,3.39-2.65,5.59-2.54,22.57,1.11,45.13.92,67.7.09,2.12-.08,5.13-1,5.38,2.66.27,3.85-2.76,3.47-5.25,3.73-14.83,1.59-23.7,9.92-26.19,24.56a134.76,134.76,0,0,0-2,23.23q.15,101,.08,202c0,2.89,1.58,6.9-2.07,8.36-4,1.62-7.1-1.47-9.45-4.31q-18.36-22.26-36.44-44.74-69.24-86.49-138.4-173c-.9-1.12-1.46-3.28-3.37-2.57s-1,2.75-1,4.17q-.07,42.63,0,85.25Z" transform="translate(-295.94 -613.08)"/><path class="cls-1" d="M327.48,742.2c0-33.28.12-66.56-.07-99.84-.06-12-3.94-17.9-12.64-20.62A45.19,45.19,0,0,0,300.92,620c-2.45,0-4.9-.06-4.79-3.49s2.6-2.83,4.68-2.83q80,.12,160,.21c4.38,0,5.73,2,5.79,6,.23,15,.68,30,1,45,.05,2.6.79,6.09-3.29,6.19-3.44.08-3.54-3.16-3.85-5.58-2.2-16.88-10.24-29.51-26.24-36.43A54.69,54.69,0,0,0,416,625a192.89,192.89,0,0,0-35.56.61C368.6,627,362.13,633.77,362,645.66c-.32,26.66-.31,53.32-.43,80,0,3.09,0,5.84,4.46,5.72,17.69-.51,35.42,1.13,53.05-1.61,15-2.33,21.35-8.34,24.16-23.33.46-2.48.25-5.44,4-5.15,4.11.32,2.72,3.63,2.74,5.85.13,21.8.16,43.6.2,65.4,0,2.26.68,5.05-2.89,5.23-3.26.17-3.64-2.24-3.77-4.73-1.09-22.21-14.24-27.7-30.26-29.42-15.71-1.68-31.5-.72-47.26-.91-3.4,0-4.41,1.47-4.4,4.57.13,31.33,0,62.67.41,94,.14,10.88,6,18,16.88,19,17.58,1.68,35.35,2.88,52.86-1.07,18-4.08,29.63-15.49,35.76-32.65,1.83-5.11,3.22-10.38,4.76-15.6.6-2,1.44-3.8,3.9-3.48,2.83.37,3,2.37,2.79,4.79-1.61,18-3,36.08-3.24,54.18-.07,5.37-2.44,6.49-7.13,6.49q-83.79-.16-167.58-.13c-2.28,0-5.08.56-5.06-3.07,0-3.43,2.78-3.14,5.08-3.34.77-.07,1.55-.06,2.33-.12,17.64-1.37,23.79-7.25,24-24.84.33-33.08.09-66.17.09-99.26Z" transform="translate(-295.94 -613.08)"/><path class="cls-1" d="M866.72,872.84c-27.64,0-55.29,0-82.93-.06-2.22,0-5.66,1.36-6-2.63-.32-4.27,3.19-3.5,5.78-3.76,2.32-.24,4.67-.31,7-.71,12.17-2.17,17.57-8.23,18.23-20.51,1.11-20.63.5-41.27.54-61.9q.12-64.54.09-129.08c0-4.08,0-8.18-.2-12.26-.79-15.32-6.05-20.66-21.4-21.85-2.33-.18-4.67-.18-7-.31-2-.12-2.59-1.43-2.63-3.18a2.64,2.64,0,0,1,2.74-3.05c1.16-.08,2.33-.06,3.5-.06l155.35.42c8,0,8.06.08,8.2,8.14.25,14.21.56,28.42.85,42.62a28.55,28.55,0,0,1,0,2.92c-.16,1.87-.8,3.5-3,3.7-2.51.24-3.46-1.36-3.66-3.55a53.26,53.26,0,0,0-6.88-21.51c-7.09-12.54-18.55-18.54-32.24-20.52a154.81,154.81,0,0,0-41.36,0c-10.83,1.34-16.87,7.35-17.92,18.2-.72,7.53-.66,15.16-.72,22.74-.13,19.28,0,38.55-.28,57.82-.09,5.39,1.7,7.18,7.08,7,17.3-.62,34.66.94,51.88-1.85,13.51-2.19,19.82-8.07,22.82-21.37.21-1,.51-1.88.71-2.83.51-2.31.79-4.94,4.13-4.47,3.12.43,2.44,3,2.44,5q0,33.3,0,66.59c0,2,.74,4.66-2.5,4.94s-3.48-2.25-3.87-4.65c-3.15-19.89-11.26-27.44-31.37-29.29-2.72-.25-5.44-.5-8.16-.54-12.26-.19-24.53-.17-36.79-.51-4.84-.13-6.44,1.72-6.41,6.5.15,28.23,0,56.46.08,84.69a49.08,49.08,0,0,0,.47,6.4c1.9,14.23,8.23,20.15,22.54,20.92,12.06.66,24.13.63,36.2.11,22.88-1,41.53-15.61,48-37.66,1.26-4.3,2.55-8.58,3.6-12.93.63-2.65,2.16-3.57,4.63-3.21,2.9.41,2.33,2.67,2.13,4.54-1.92,18.21-3.21,36.45-3.36,54.76,0,5.32-2.82,6.37-7.46,6.35-27.65-.13-55.29-.07-82.94-.07Z" transform="translate(-295.94 -613.08)"/><path class="cls-1" d="M643.1,823Q649,807.83,655,792.69,676.67,737.34,698.28,682c3.87-10,8-19.89,10.86-30.15,5.71-20.18-.39-28.71-21.14-31.56-2.86-.39-8.42,1.92-7.73-4,.57-4.83,5.39-2.7,8.24-2.58,23.55,1,47.09.89,70.64.05,2.21-.07,5.57-1.45,5.8,2.71.19,3.39-2.59,3.21-4.89,3.59-18.46,3.06-29,15.21-36.13,31.38-9.71,22.06-17.7,44.8-26.56,67.19q-21.64,54.73-43.12,109.55c-5.18,13.2-10.2,26.46-15.29,39.69-1.28,3.33-2.57,6.55-7,6.84s-6-2.72-7.44-6.06q-17.67-40-35.39-79.93c-15.89-36.09-31.82-72.15-47.49-108.33-6.41-14.78-11.68-30.06-19.85-44.05-5.48-9.37-13.45-14.89-24.15-16.34-2.44-.34-4.24-.91-4.08-3.75.18-3.19,2.6-2.93,4.73-2.81,28.6,1.65,57.2,1.14,85.8.28,2.15-.06,5-.77,5.05,3,0,3.62-2.73,3-5,3.3a97.29,97.29,0,0,0-10.38,1.56c-9,2.15-13.21,9-11.12,18,2.72,11.63,8.31,22.19,13,33.05,19.55,45.32,39.35,90.53,59.07,135.78,2.16,4.94,4.43,9.83,6.65,14.74Z" transform="translate(-295.94 -613.08)"/></svg>