<svg id="Layer_1" data-name="Layer 1" xmlns="http://www.w3.org/2000/svg" viewBox="0 0 557.1 486"><defs><style>.cls-1{fill:#0d2745;}.cls-2{fill:#8ca8bf;}.cls-3{fill:#45688d;}</style></defs><title>logomark-even</title><path class="cls-1" d="M1047.8,921.7l-.4.7-1.8,2.4v0l-3.8,4.3h0a145.6,145.6,0,0,1-24.3,19.2l-1.6.9c-14.4,8-29.8,13.4-45.3,18.6l-.7.2-27.7,6.8-1.4.4c-2.5.4-5.2.2-7.3,1.9h-.1c-1.4-1-2.7-.3-4,.1l-1.1.3-3,.4-2.3.5c-4,.5-8,.8-11.9,1.6-6.2,1.2-12.7,1-18.9,3.1h-1.5c-4.6.3-9.2.2-13.6,1.1s-7.3-.4-10.7,1.3h-1.6a191.3,191.3,0,0,0-25.1,1.7h0l-37.2,1.3a15,15,0,0,0-5.6.2H774.7c-21,.4-42-1.4-63.1-.6l-4.3-.7c-2.4-.8-5,0-7.4-.1h-4.1c-4-1.5-8-1.1-12.1-.8l-1.9-.5c-1.1-1-2.5-.5-3.8-.5l-3.2.2c-2.8-.4-5.5-2-8.4-.7l-2.6-.4c-1.3-1.1-2.9-.8-4.4-.7l-2.4.2c-2.1-.6-4.2-1.9-6.5-.8l-2.5-.5c-.8-1-2-.6-3.2-.6h-3a2,2,0,0,0-3.3-.4l-1.9-.2c-1.1-1.3-2.6-1.3-4.1-1l-3.7-.6c-1.5-.9-3.2-.8-4.9-.9l-1.4-.2a30.3,30.3,0,0,0-8.4-1.5l-1.4-.4-7.4-1.2-1.5-.3-1.8-.4a8.1,8.1,0,0,0-4-.9l-6.5-1.5-2.3-.5-5-1.2-1.5-.4c-12-3.6-24-7.1-35.7-11.8a2.9,2.9,0,0,0-1.8-1l-2-.7-7.8-4.1-6.8-4.1h.1l-2.6-1.7-.3-.3-3.8-2.8-1.6-1.5-4-3.4-1.2-1.1-2.8-3.2a3.6,3.6,0,0,0-1.7-2l-1.7-2.4h0c-5.5-9.3-8.9-19.1-8-30.2.8-9,4.5-17,8.8-24.7l1-1.6,1.6-2.5.6-.8,2.1-2.8,2.8-3.1,9.3-9.1h0l6.2-5.2h-.1l9.2-6.5a1.3,1.3,0,0,0,1.4-.8l12.2-7.2h0a5.9,5.9,0,0,0,3.2-1.7h-.1l9.3-4.8h.2l.2-.2a1.5,1.5,0,0,0,1.6-.6,2.1,2.1,0,0,0,1.7-.8c26.7-12.2,54.4-21.3,82.8-28.7,1.7.1,3.5.1,5.2.3,17.5,3,35.3,4,53,4.6,15.1.5,30.4.3,45.6-.4,18.8-.8,37.5-2.1,56.2-4.1s38.6-5.4,57.7-9.2c8.5-1.6,16.9-4.4,25.5-5.6,13.5,2.4,27,4.9,40.3,8.3,11.2,2.8,22,7,33,10.5a.7.7,0,0,0,1,.4l14.3,6.1,1.6.8c16.5,8.3,32.4,17.5,46,30.2l.5.5,11.7,13.4v.2h0l2,1.7,2.7,5.7c3.3,7.6,6,15.5,6.6,23.9C1058.7,899.6,1054.5,911,1047.8,921.7Z" transform="translate(-500.8 -503)"/><path class="cls-2" d="M869.6,530.7l1.6.7,11.3,5.7,1.5.7a4.1,4.1,0,0,0,2.6,1.7l1.5.8a4.2,4.2,0,0,0,2.5,1.6h0a7.5,7.5,0,0,0,4.1,2.4h-.1a29.2,29.2,0,0,0,7.3,4.9l.9.7a3.5,3.5,0,0,0,2.4,1.7h0a6.6,6.6,0,0,0,3.2,2.5,6.4,6.4,0,0,0,2.6,2.3l4.7,4.1h0l9.6,10.5h0c.4,1.4.9,2.7,2.4,3.3h0c.2,2.4,2,4.1,3,6.1,9.1,17.6,5.5,36.6-9.9,49.1-10.2,8.2-22.2,13.1-34.7,16.6-7.3,2.1-14.6,3.6-21.9,5.4l-4.8.6a318.8,318.8,0,0,1-52.4,5.3c-10.1.1-20.1,0-30.2-.6-16.8-.9-33.3-3.4-49.8-6.4-11.4-2.1-22.4-5.6-33.6-8.3a35.7,35.7,0,0,0-10.5-3.3h0c-2.8-2.3-6.3-3.1-9.7-4.1l-1.7-.7a21.1,21.1,0,0,0-6.4-3.1l-.7-.2-16.3-9.6h0a22.4,22.4,0,0,0-5.6-4.1h0l-2.5-2.4h0a27.3,27.3,0,0,0-4.8-4.8,2.8,2.8,0,0,0-1.5-1.7,6.7,6.7,0,0,0-2.5-3.2h0a64.3,64.3,0,0,1-8.2-21,21.8,21.8,0,0,0-.1-2.5c-.2-10.6,2.6-20.5,7.4-29.8h0a7.8,7.8,0,0,0,2.6-4.1l.6-.9c1.5-1,2.3-2.5,3.3-4h0c2.8-2.8,6-5.3,8.2-8.7h0a9.1,9.1,0,0,0,4.8-3.4h-.1a3.7,3.7,0,0,0,2.5-1.7h0a3.3,3.3,0,0,0,2.4-1.6h0c.9-.1,1.6-.5,1.7-1.5h0a12.7,12.7,0,0,0,6.4-3.3h0l1.6-.8,1.6-.9,1.5-.4a179.5,179.5,0,0,1,54.1-15.1l20.4-2.3h2.4c10.1,0,20.2.5,30.2,1.5a284.3,284.3,0,0,1,52.6,10.2c10.8,3.2,21.3,7.6,32,11.1h0C862.2,528.1,866,529.2,869.6,530.7Z" transform="translate(-500.8 -503)"/><path class="cls-3" d="M964.1,756.8l-3.2,2.4c-18.4,11.5-38.4,19.1-59.3,24.6a19.9,19.9,0,0,0-3.4,1.3c-8.6,1.2-17,4-25.5,5.6-19.1,3.8-38.3,7.1-57.7,9.2s-37.4,3.3-56.2,4.1c-15.2.7-30.5.9-45.6.4-17.7-.6-35.5-1.6-53-4.6-1.7-.2-3.5-.2-5.2-.3-15.1-2.7-30.2-5.3-44.7-10.4s-28.3-11.6-40-22.1c-16.4-15-20-36.3-8.9-55.6,4.2-7.5,9.7-13.8,15.6-20,32.7-28,71.8-41,113.3-48.6l3.1-.7c11.2,2.7,22.2,6.2,33.6,8.3,16.5,3,33,5.5,49.8,6.4,10.1.6,20.1.7,30.2.6a318.8,318.8,0,0,0,52.4-5.3l4.8-.6c30.1,6.8,60.2,13.8,87.7,28.5a110.8,110.8,0,0,1,15.9,10.3l4.1,3.8c17.3,17.2,16.6,39.9-1.5,57.1Z" transform="translate(-500.8 -503)"/></svg>